####
#
# OBJ File Generated by Meshlab
#
####
# Object balloon.obj
#
# Vertices: 162
# Faces: 320
#
####
vn 2.096867 1.876991 -0.807247
v 0.407263 -1.708127 -0.145398
vn 1.744778 1.876988 -1.415712
v 0.345044 -1.708127 -0.267511
vn 1.221911 1.876991 -1.885584
v 0.248133 -1.708127 -0.364422
vn 0.579433 1.876993 -2.170883
v 0.126020 -1.708127 -0.426644
vn -0.119790 1.876990 -2.243687
v -0.009345 -1.708127 -0.448083
vn -0.807257 1.876988 -2.096865
v -0.144709 -1.708127 -0.426642
vn -1.415714 1.876988 -1.744777
v -0.266824 -1.708127 -0.364422
vn -1.885586 1.876989 -1.221912
v -0.363734 -1.708127 -0.267511
vn -2.170885 1.876991 -0.579432
v -0.425955 -1.708127 -0.145398
vn -2.243686 1.876992 0.119781
v -0.447395 -1.708127 -0.010033
vn -2.096855 1.876993 0.807264
v -0.425955 -1.708127 0.125331
vn -1.744788 1.876991 1.415702
v -0.363734 -1.708127 0.247445
vn -1.221898 1.876991 1.885587
v -0.266824 -1.708127 0.344355
vn -0.579421 1.876992 2.170890
v -0.144709 -1.708127 0.406575
vn 0.119783 1.876992 2.243687
v -0.009345 -1.708127 0.428014
vn 0.807244 1.876992 2.096867
v 0.126018 -1.708127 0.406575
vn 1.415714 1.876991 1.744772
v 0.248133 -1.708127 0.344355
vn 1.885586 1.876993 1.221908
v 0.345042 -1.708127 0.247445
vn 2.170884 1.876993 0.579434
v 0.407263 -1.708127 0.125331
vn 2.243687 1.876992 -0.119779
v 0.428703 -1.708127 -0.010033
vn 0.666094 2.925003 -0.178231
v 0.142570 1.402194 -0.059394
vn 0.578416 2.925003 -0.375341
v 0.119881 1.402194 -0.103923
vn 0.434119 2.925003 -0.535713
v 0.084543 1.402194 -0.139261
vn 0.247330 2.925003 -0.643642
v 0.040016 1.402194 -0.161950
vn 0.036327 2.925003 -0.688569
v -0.009345 1.402194 -0.169768
vn -0.178232 2.925003 -0.666093
v -0.058705 1.402194 -0.161950
vn -0.375343 2.925003 -0.578416
v -0.103234 1.402194 -0.139261
vn -0.535712 2.925003 -0.434120
v -0.138573 1.402194 -0.103923
vn -0.643643 2.925004 -0.247329
v -0.161262 1.402194 -0.059394
vn -0.688569 2.925003 -0.036326
v -0.169080 1.402194 -0.010033
vn -0.666093 2.925003 0.178233
v -0.161262 1.402194 0.039327
vn -0.578415 2.925004 0.375344
v -0.138573 1.402194 0.083854
vn -0.434119 2.925004 0.535711
v -0.103234 1.402194 0.119193
vn -0.247327 2.925003 0.643643
v -0.058705 1.402194 0.141882
vn -0.036327 2.925003 0.688569
v -0.009347 1.402194 0.149700
vn 0.178232 2.925003 0.666094
v 0.040014 1.402194 0.141882
vn 0.375341 2.925003 0.578416
v 0.084543 1.402194 0.119193
vn 0.535712 2.925003 0.434119
v 0.119881 1.402194 0.083854
vn 0.643642 2.925003 0.247331
v 0.142570 1.402194 0.039327
vn 0.688569 2.925003 0.036327
v 0.150388 1.402194 -0.010033
vn 0.000000 -0.527077 0.000000
v -0.009345 -1.500000 -0.010033
vn 0.000000 0.070085 0.000000
v -0.009345 1.413728 -0.010033
vn 1.205689 4.161370 3.872795
v 0.361597 1.013946 1.131612
vn -0.050081 4.161370 4.055825
v -0.009345 1.013946 1.190362
vn -1.300947 4.161370 3.841843
v -0.380289 1.013946 1.131612
vn -2.424469 4.161371 3.251795
v -0.714921 1.013946 0.961107
vn -3.310668 4.161372 2.343436
v -0.980487 1.013946 0.695542
vn -3.872794 4.161372 1.205691
v -1.150990 1.013946 0.360909
vn -4.055825 4.161371 -0.050081
v -1.209743 1.013946 -0.010033
vn -3.841844 4.161372 -1.300949
v -1.150990 1.013946 -0.380977
vn -3.251792 4.161373 -2.424471
v -0.980487 1.013946 -0.715610
vn -2.343438 4.161371 -3.310668
v -0.714921 1.013946 -0.981175
vn -1.205692 4.161372 -3.872793
v -0.380289 1.013946 -1.151679
vn 0.050083 4.161372 -4.055824
v -0.009345 1.013946 -1.210431
vn 1.300951 4.161373 -3.841842
v 0.361597 1.013946 -1.151679
vn 2.424467 4.161373 -3.251796
v 0.696229 1.013946 -0.981175
vn 3.310665 4.161371 -2.343440
v 0.961797 1.013946 -0.715610
vn 3.872794 4.161372 -1.205682
v 1.132300 1.013946 -0.380977
vn 4.055824 4.161373 0.050088
v 1.191051 1.013946 -0.010033
vn 3.841843 4.161372 1.300951
v 1.132299 1.013946 0.360909
vn 3.251794 4.161373 2.424470
v 0.961796 1.013946 0.695541
vn 2.343441 4.161371 3.310667
v 0.696229 1.013946 0.961107
vn 1.665728 1.606817 5.205307
v 0.454181 0.547389 1.416551
vn -0.024332 1.606816 5.465279
v -0.009345 0.547389 1.489967
vn -1.712000 1.606816 5.190274
v -0.472870 0.547389 1.416551
vn -3.232091 1.606817 4.407205
v -0.891024 0.547389 1.203492
vn -4.435804 1.606819 3.192724
v -1.222872 0.547389 0.871644
vn -5.205308 1.606819 1.665725
v -1.435930 0.547389 0.453492
vn -5.465277 1.606819 -0.024331
v -1.509346 0.547389 -0.010033
vn -5.190272 1.606819 -1.712001
v -1.435930 0.547389 -0.473559
vn -4.407200 1.606819 -3.232093
v -1.222872 0.547389 -0.891712
vn -3.192727 1.606818 -4.435805
v -0.891024 0.547389 -1.223559
vn -1.665730 1.606818 -5.205305
v -0.472872 0.547389 -1.436619
vn 0.024332 1.606819 -5.465277
v -0.009345 0.547389 -1.510035
vn 1.712005 1.606819 -5.190270
v 0.454181 0.547389 -1.436619
vn 3.232091 1.606820 -4.407203
v 0.872333 0.547389 -1.223561
vn 4.435803 1.606818 -3.192729
v 1.204180 0.547389 -0.891712
vn 5.205308 1.606817 -1.665720
v 1.417241 0.547389 -0.473559
vn 5.465278 1.606819 0.024340
v 1.490655 0.547389 -0.010033
vn 5.190270 1.606819 1.712005
v 1.417239 0.547389 0.453492
vn 4.407202 1.606820 3.232091
v 1.204180 0.547389 0.871644
vn 3.192724 1.606820 4.435804
v 0.872333 0.547389 1.203492
vn 1.740043 -1.419180 5.295073
v 0.454181 -0.106674 1.416551
vn 0.018612 -1.419179 5.573614
v -0.009345 -0.106674 1.489967
vn -1.704641 -1.419179 5.306576
v -0.472870 -0.106674 1.416551
vn -3.261026 -1.419180 4.520092
v -0.891024 -0.106674 1.203492
vn -4.498211 -1.419180 3.291143
v -1.222872 -0.106674 0.871644
vn -5.295073 -1.419180 1.740042
v -1.435930 -0.106674 0.453492
vn -5.573614 -1.419179 0.018612
v -1.509346 -0.106674 -0.010033
vn -5.306576 -1.419179 -1.704640
v -1.435930 -0.106674 -0.473559
vn -4.520089 -1.419179 -3.261030
v -1.222872 -0.106674 -0.891712
vn -3.291145 -1.419178 -4.498213
v -0.891024 -0.106674 -1.223559
vn -1.740048 -1.419179 -5.295070
v -0.472872 -0.106674 -1.436619
vn -0.018610 -1.419180 -5.573614
v -0.009345 -0.106674 -1.510035
vn 1.704643 -1.419180 -5.306574
v 0.454181 -0.106674 -1.436619
vn 3.261029 -1.419180 -4.520089
v 0.872333 -0.106674 -1.223561
vn 4.498209 -1.419181 -3.291145
v 1.204180 -0.106674 -0.891712
vn 5.295071 -1.419182 -1.740039
v 1.417241 -0.106674 -0.473559
vn 5.573614 -1.419180 -0.018604
v 1.490655 -0.106674 -0.010033
vn 5.306574 -1.419180 1.704643
v 1.417239 -0.106674 0.453492
vn 4.520089 -1.419180 3.261029
v 1.204180 -0.106674 0.871644
vn 3.291143 -1.419180 4.498211
v 0.872333 -0.106674 1.203492
vn 1.427473 -3.727881 4.270567
v 0.361884 -0.656080 1.132494
vn 0.037931 -3.727880 4.502662
v -0.009345 -0.656080 1.191291
vn -1.355323 -3.727880 4.294011
v -0.380576 -0.656080 1.132494
vn -2.615910 -3.727880 3.665026
v -0.715467 -0.656080 0.961859
vn -3.620437 -3.727882 2.677282
v -0.981238 -0.656080 0.696087
vn -4.270566 -3.727881 1.427475
v -1.151874 -0.656080 0.361196
vn -4.502662 -3.727880 0.037931
v -1.210671 -0.656080 -0.010033
vn -4.294008 -3.727880 -1.355326
v -1.151874 -0.656080 -0.381264
vn -3.665026 -3.727880 -2.615911
v -0.981238 -0.656080 -0.716155
vn -2.677283 -3.727880 -3.620438
v -0.715467 -0.656080 -0.981927
vn -1.427476 -3.727880 -4.270566
v -0.380576 -0.656080 -1.152562
vn -0.037928 -3.727881 -4.502662
v -0.009345 -0.656080 -1.211360
vn 1.355328 -3.727881 -4.294008
v 0.361884 -0.656080 -1.152562
vn 2.615909 -3.727882 -3.665028
v 0.696775 -0.656080 -0.981927
vn 3.620437 -3.727882 -2.677281
v 0.962547 -0.656080 -0.716155
vn 4.270566 -3.727882 -1.427472
v 1.133183 -0.656080 -0.381264
vn 4.502662 -3.727882 -0.037925
v 1.191980 -0.656080 -0.010033
vn 4.294007 -3.727881 1.355328
v 1.133183 -0.656080 0.361196
vn 3.665028 -3.727881 2.615909
v 0.962547 -0.656080 0.696087
vn 2.677280 -3.727881 3.620437
v 0.696775 -0.656080 0.961859
vn 1.266860 -0.379001 3.963346
v 0.059964 -1.456815 0.203280
vn -0.019882 -0.379001 4.160841
v -0.009345 -1.456815 0.214258
vn -1.304670 -0.379001 3.951061
v -0.078655 -1.456815 0.203280
vn -2.461771 -0.379002 3.354500
v -0.141181 -1.456815 0.171423
vn -3.377883 -0.379001 2.429597
v -0.190802 -1.456815 0.121802
vn -3.963337 -0.379001 1.266873
v -0.222660 -1.456815 0.059276
vn -4.160841 -0.379001 -0.019882
v -0.233639 -1.456815 -0.010033
vn -3.951049 -0.379003 -1.304695
v -0.222660 -1.456815 -0.079344
vn -3.354512 -0.379006 -2.461768
v -0.190802 -1.456815 -0.141870
vn -2.429596 -0.379006 -3.377883
v -0.141181 -1.456815 -0.191490
vn -1.266875 -0.379006 -3.963344
v -0.078655 -1.456815 -0.223348
vn 0.019881 -0.379002 -4.160841
v -0.009345 -1.456815 -0.234327
vn 1.304696 -0.379000 -3.951047
v 0.059964 -1.456815 -0.223348
vn 2.461767 -0.379004 -3.354512
v 0.122490 -1.456815 -0.191490
vn 3.377883 -0.379004 -2.429592
v 0.172111 -1.456815 -0.141870
vn 3.963346 -0.379002 -1.266859
v 0.203968 -1.456815 -0.079344
vn 4.160841 -0.379001 0.019887
v 0.214947 -1.456815 -0.010033
vn 3.951046 -0.379000 1.304696
v 0.203968 -1.456815 0.059276
vn 3.354516 -0.379002 2.461760
v 0.172110 -1.456815 0.121802
vn 2.429589 -0.379002 3.377881
v 0.122490 -1.456815 0.171423
vn -2.241675 5.472548 -0.045696
v -0.826097 1.247270 -0.010033
vn -2.117838 5.472548 -0.736177
v -0.786121 1.247270 -0.262424
vn -1.786693 5.472548 -1.354593
v -0.670110 1.247270 -0.490109
vn -1.280654 5.472548 -1.840412
v -0.489420 1.247270 -0.670798
vn -0.649258 5.472548 -2.146080
v -0.261735 1.247270 -0.786810
vn 0.045698 5.472548 -2.241675
v -0.009345 1.247270 -0.826785
vn 0.736178 5.472548 -2.117837
v 0.243043 1.247270 -0.786810
vn 1.354591 5.472548 -1.786695
v 0.470728 1.247270 -0.670798
vn 1.840409 5.472549 -1.280653
v 0.651420 1.247270 -0.490109
vn 2.146079 5.472549 -0.649252
v 0.767430 1.247270 -0.262424
vn 2.241675 5.472548 0.045698
v 0.807405 1.247270 -0.010033
vn 2.117837 5.472548 0.736179
v 0.767430 1.247270 0.242356
vn 1.786694 5.472547 1.354594
v 0.651419 1.247270 0.470040
vn 1.280655 5.472548 1.840410
v 0.470728 1.247270 0.650732
vn 0.649254 5.472548 2.146079
v 0.243043 1.247270 0.766742
vn -0.045695 5.472548 2.241673
v -0.009345 1.247270 0.806716
vn -0.736175 5.472548 2.117837
v -0.261735 1.247270 0.766742
vn -1.354592 5.472548 1.786692
v -0.489420 1.247270 0.650732
vn -1.840412 5.472548 1.280654
v -0.670110 1.247270 0.470040
vn -2.146079 5.472548 0.649260
v -0.786121 1.247270 0.242356
# 162 vertices, 0 vertices normals

f 1//1 2//2 137//137
f 1//1 137//137 138//138
f 2//2 3//3 136//136
f 2//2 136//136 137//137
f 3//3 4//4 135//135
f 3//3 135//135 136//136
f 4//4 5//5 134//134
f 4//4 134//134 135//135
f 5//5 6//6 133//133
f 5//5 133//133 134//134
f 6//6 7//7 132//132
f 6//6 132//132 133//133
f 7//7 8//8 131//131
f 7//7 131//131 132//132
f 8//8 9//9 130//130
f 8//8 130//130 131//131
f 9//9 10//10 129//129
f 9//9 129//129 130//130
f 10//10 11//11 128//128
f 10//10 128//128 129//129
f 11//11 12//12 127//127
f 11//11 127//127 128//128
f 12//12 13//13 126//126
f 12//12 126//126 127//127
f 13//13 14//14 125//125
f 13//13 125//125 126//126
f 14//14 15//15 124//124
f 14//14 124//124 125//125
f 15//15 16//16 123//123
f 15//15 123//123 124//124
f 16//16 17//17 142//142
f 16//16 142//142 123//123
f 17//17 18//18 141//141
f 17//17 141//141 142//142
f 18//18 19//19 140//140
f 18//18 140//140 141//141
f 19//19 20//20 139//139
f 19//19 139//139 140//140
f 20//20 1//1 138//138
f 20//20 138//138 139//139
f 2//2 1//1 41//41
f 3//3 2//2 41//41
f 4//4 3//3 41//41
f 5//5 4//4 41//41
f 6//6 5//5 41//41
f 7//7 6//6 41//41
f 8//8 7//7 41//41
f 9//9 8//8 41//41
f 10//10 9//9 41//41
f 11//11 10//10 41//41
f 12//12 11//11 41//41
f 13//13 12//12 41//41
f 14//14 13//13 41//41
f 15//15 14//14 41//41
f 16//16 15//15 41//41
f 17//17 16//16 41//41
f 18//18 17//17 41//41
f 19//19 18//18 41//41
f 20//20 19//19 41//41
f 1//1 20//20 41//41
f 21//21 22//22 42//42
f 22//22 23//23 42//42
f 23//23 24//24 42//42
f 24//24 25//25 42//42
f 25//25 26//26 42//42
f 26//26 27//27 42//42
f 27//27 28//28 42//42
f 28//28 29//29 42//42
f 29//29 30//30 42//42
f 30//30 31//31 42//42
f 31//31 32//32 42//42
f 32//32 33//33 42//42
f 33//33 34//34 42//42
f 34//34 35//35 42//42
f 35//35 36//36 42//42
f 36//36 37//37 42//42
f 37//37 38//38 42//42
f 38//38 39//39 42//42
f 39//39 40//40 42//42
f 40//40 21//21 42//42
f 44//44 43//43 157//157
f 44//44 157//157 158//158
f 45//45 44//44 158//158
f 45//45 158//158 159//159
f 46//46 45//45 159//159
f 46//46 159//159 160//160
f 47//47 46//46 160//160
f 47//47 160//160 161//161
f 48//48 47//47 161//161
f 48//48 161//161 162//162
f 49//49 48//48 162//162
f 49//49 162//162 143//143
f 50//50 49//49 143//143
f 50//50 143//143 144//144
f 51//51 50//50 144//144
f 51//51 144//144 145//145
f 52//52 51//51 145//145
f 52//52 145//145 146//146
f 53//53 52//52 146//146
f 53//53 146//146 147//147
f 54//54 53//53 147//147
f 54//54 147//147 148//148
f 55//55 54//54 148//148
f 55//55 148//148 149//149
f 56//56 55//55 149//149
f 56//56 149//149 150//150
f 57//57 56//56 150//150
f 57//57 150//150 151//151
f 58//58 57//57 151//151
f 58//58 151//151 152//152
f 59//59 58//58 152//152
f 59//59 152//152 153//153
f 60//60 59//59 153//153
f 60//60 153//153 154//154
f 61//61 60//60 154//154
f 61//61 154//154 155//155
f 62//62 61//61 155//155
f 62//62 155//155 156//156
f 43//43 62//62 156//156
f 43//43 156//156 157//157
f 64//64 63//63 43//43
f 64//64 43//43 44//44
f 65//65 64//64 44//44
f 65//65 44//44 45//45
f 66//66 65//65 45//45
f 66//66 45//45 46//46
f 67//67 66//66 46//46
f 67//67 46//46 47//47
f 68//68 67//67 47//47
f 68//68 47//47 48//48
f 69//69 68//68 48//48
f 69//69 48//48 49//49
f 70//70 69//69 49//49
f 70//70 49//49 50//50
f 71//71 70//70 50//50
f 71//71 50//50 51//51
f 72//72 71//71 51//51
f 72//72 51//51 52//52
f 73//73 72//72 52//52
f 73//73 52//52 53//53
f 74//74 73//73 53//53
f 74//74 53//53 54//54
f 75//75 74//74 54//54
f 75//75 54//54 55//55
f 76//76 75//75 55//55
f 76//76 55//55 56//56
f 77//77 76//76 56//56
f 77//77 56//56 57//57
f 78//78 77//77 57//57
f 78//78 57//57 58//58
f 79//79 78//78 58//58
f 79//79 58//58 59//59
f 80//80 79//79 59//59
f 80//80 59//59 60//60
f 81//81 80//80 60//60
f 81//81 60//60 61//61
f 82//82 81//81 61//61
f 82//82 61//61 62//62
f 63//63 82//82 62//62
f 63//63 62//62 43//43
f 84//84 83//83 63//63
f 84//84 63//63 64//64
f 85//85 84//84 64//64
f 85//85 64//64 65//65
f 86//86 85//85 65//65
f 86//86 65//65 66//66
f 87//87 86//86 66//66
f 87//87 66//66 67//67
f 88//88 87//87 67//67
f 88//88 67//67 68//68
f 89//89 88//88 68//68
f 89//89 68//68 69//69
f 90//90 89//89 69//69
f 90//90 69//69 70//70
f 91//91 90//90 70//70
f 91//91 70//70 71//71
f 92//92 91//91 71//71
f 92//92 71//71 72//72
f 93//93 92//92 72//72
f 93//93 72//72 73//73
f 94//94 93//93 73//73
f 94//94 73//73 74//74
f 95//95 94//94 74//74
f 95//95 74//74 75//75
f 96//96 95//95 75//75
f 96//96 75//75 76//76
f 97//97 96//96 76//76
f 97//97 76//76 77//77
f 98//98 97//97 77//77
f 98//98 77//77 78//78
f 99//99 98//98 78//78
f 99//99 78//78 79//79
f 100//100 99//99 79//79
f 100//100 79//79 80//80
f 101//101 100//100 80//80
f 101//101 80//80 81//81
f 102//102 101//101 81//81
f 102//102 81//81 82//82
f 83//83 102//102 82//82
f 83//83 82//82 63//63
f 104//104 103//103 83//83
f 104//104 83//83 84//84
f 105//105 104//104 84//84
f 105//105 84//84 85//85
f 106//106 105//105 85//85
f 106//106 85//85 86//86
f 107//107 106//106 86//86
f 107//107 86//86 87//87
f 108//108 107//107 87//87
f 108//108 87//87 88//88
f 109//109 108//108 88//88
f 109//109 88//88 89//89
f 110//110 109//109 89//89
f 110//110 89//89 90//90
f 111//111 110//110 90//90
f 111//111 90//90 91//91
f 112//112 111//111 91//91
f 112//112 91//91 92//92
f 113//113 112//112 92//92
f 113//113 92//92 93//93
f 114//114 113//113 93//93
f 114//114 93//93 94//94
f 115//115 114//114 94//94
f 115//115 94//94 95//95
f 116//116 115//115 95//95
f 116//116 95//95 96//96
f 117//117 116//116 96//96
f 117//117 96//96 97//97
f 118//118 117//117 97//97
f 118//118 97//97 98//98
f 119//119 118//118 98//98
f 119//119 98//98 99//99
f 120//120 119//119 99//99
f 120//120 99//99 100//100
f 121//121 120//120 100//100
f 121//121 100//100 101//101
f 122//122 121//121 101//101
f 122//122 101//101 102//102
f 103//103 122//122 102//102
f 103//103 102//102 83//83
f 124//124 123//123 103//103
f 124//124 103//103 104//104
f 125//125 124//124 104//104
f 125//125 104//104 105//105
f 126//126 125//125 105//105
f 126//126 105//105 106//106
f 127//127 126//126 106//106
f 127//127 106//106 107//107
f 128//128 127//127 107//107
f 128//128 107//107 108//108
f 129//129 128//128 108//108
f 129//129 108//108 109//109
f 130//130 129//129 109//109
f 130//130 109//109 110//110
f 131//131 130//130 110//110
f 131//131 110//110 111//111
f 132//132 131//131 111//111
f 132//132 111//111 112//112
f 133//133 132//132 112//112
f 133//133 112//112 113//113
f 134//134 133//133 113//113
f 134//134 113//113 114//114
f 135//135 134//134 114//114
f 135//135 114//114 115//115
f 136//136 135//135 115//115
f 136//136 115//115 116//116
f 137//137 136//136 116//116
f 137//137 116//116 117//117
f 138//138 137//137 117//117
f 138//138 117//117 118//118
f 139//139 138//138 118//118
f 139//139 118//118 119//119
f 140//140 139//139 119//119
f 140//140 119//119 120//120
f 141//141 140//140 120//120
f 141//141 120//120 121//121
f 142//142 141//141 121//121
f 142//142 121//121 122//122
f 123//123 142//142 122//122
f 123//123 122//122 103//103
f 144//144 143//143 30//30
f 144//144 30//30 29//29
f 145//145 144//144 29//29
f 145//145 29//29 28//28
f 146//146 145//145 28//28
f 146//146 28//28 27//27
f 147//147 146//146 27//27
f 147//147 27//27 26//26
f 148//148 147//147 26//26
f 148//148 26//26 25//25
f 149//149 148//148 25//25
f 149//149 25//25 24//24
f 150//150 149//149 24//24
f 150//150 24//24 23//23
f 151//151 150//150 23//23
f 151//151 23//23 22//22
f 152//152 151//151 22//22
f 152//152 22//22 21//21
f 153//153 152//152 21//21
f 153//153 21//21 40//40
f 154//154 153//153 40//40
f 154//154 40//40 39//39
f 155//155 154//154 39//39
f 155//155 39//39 38//38
f 156//156 155//155 38//38
f 156//156 38//38 37//37
f 157//157 156//156 37//37
f 157//157 37//37 36//36
f 158//158 157//157 36//36
f 158//158 36//36 35//35
f 159//159 158//158 35//35
f 159//159 35//35 34//34
f 160//160 159//159 34//34
f 160//160 34//34 33//33
f 161//161 160//160 33//33
f 161//161 33//33 32//32
f 162//162 161//161 32//32
f 162//162 32//32 31//31
f 143//143 162//162 31//31
f 143//143 31//31 30//30
# 320 faces, 0 coords texture

# End of File
